<svg xmlns="http://www.w3.org/2000/svg" xmlns:xlink="http://www.w3.org/1999/xlink" width="56" height="56" viewBox="0 0 56 56">
  <defs>
    <clipPath id="clip-path">
      <rect id="Rectangle_3779" data-name="Rectangle 3779" width="48" height="48" transform="translate(546.5 1215.289)" fill="#d0d0d0"/>
    </clipPath>
  </defs>
  <g id="Group_15447" data-name="Group 15447" transform="translate(-568 358)">
    <rect id="Rectangle_3767" data-name="Rectangle 3767" width="56" height="56" transform="translate(568 -358)" fill="#fff"/>
    <g id="Mask_Group_37" data-name="Mask Group 37" transform="translate(25.5 -1569.289)" clip-path="url(#clip-path)">
      <g id="swimming-pool" transform="translate(549.449 1217.592)">
        <rect id="Rectangle_3768" data-name="Rectangle 3768" width="42.102" height="1.293" transform="translate(0 27.63)" fill="#022741"/>
        <rect id="Rectangle_3769" data-name="Rectangle 3769" width="11.841" height="1.293" transform="translate(30.261 17.761)" fill="#022741"/>
        <rect id="Rectangle_3770" data-name="Rectangle 3770" width="17.104" height="1.293" transform="translate(0 17.761)" fill="#022741"/>
        <rect id="Rectangle_3771" data-name="Rectangle 3771" width="5.921" height="1.293" transform="translate(5.921 31.576)" fill="#022741"/>
        <rect id="Rectangle_3772" data-name="Rectangle 3772" width="13.157" height="1.293" transform="translate(12.499 34.208)" fill="#022741"/>
        <rect id="Rectangle_3773" data-name="Rectangle 3773" width="3.29" height="1.293" transform="translate(9.21 36.839)" fill="#022741"/>
        <rect id="Rectangle_3774" data-name="Rectangle 3774" width="3.947" height="1.293" transform="translate(36.181 34.208)" fill="#022741"/>
        <rect id="Rectangle_3775" data-name="Rectangle 3775" width="9.868" height="1.293" transform="translate(27.63 30.918)" fill="#022741"/>
        <rect id="Rectangle_3776" data-name="Rectangle 3776" width="1.974" height="1.293" transform="translate(0 34.866)" fill="#022741"/>
        <rect id="Rectangle_3777" data-name="Rectangle 3777" width="1.974" height="1.293" transform="translate(31.576 36.839)" fill="#022741"/>
        <rect id="Rectangle_3778" data-name="Rectangle 3778" width="1.293" height="2.631" transform="translate(25.667 14.461)" fill="#022741"/>
        <path id="Path_6094" data-name="Path 6094" d="M21.556,24.318h9.232V26.96h1.293V9.856a3.3,3.3,0,1,1,6.6,0v7.236h1.293V9.856a4.594,4.594,0,1,0-9.188,0V12.5H21.556V9.856a3.3,3.3,0,1,1,6.6,0V11.83H29.45V9.856a4.594,4.594,0,1,0-9.188,0v17.1h1.293V24.318Zm0-10.525h9.232v3.969H21.556Zm0,5.263h9.232v3.969H21.556Z" transform="translate(-2.49)" fill="#022741"/>
      </g>
    </g>
  </g>
</svg>
