<svg xmlns="http://www.w3.org/2000/svg" width="56" height="56" viewBox="0 0 56 56">
  <g id="wedding_02" transform="translate(-856 379)">
    <rect id="Rectangle_3940" data-name="Rectangle 3940" width="56" height="56" transform="translate(856 -379)" fill="#fff"/>
    <g id="Group_25" data-name="Group 25" transform="translate(864 -374)">
      <g id="reception-bell-call">
        <path id="Shape_181" data-name="Shape 181" d="M199.225,364.009a2.011,2.011,0,0,0,1.986-2.342,14.273,14.273,0,0,0-28.093,0,2.01,2.01,0,0,0,1.984,2.342Z" transform="translate(-173.09 -317.774)" fill="none" stroke="#022741" stroke-linecap="round" stroke-linejoin="round" stroke-width="1.5"/>
        <path id="Shape_182" data-name="Shape 182" d="M182.565,333.931a2.747,2.747,0,0,0,.452,1.859l5.192,7.884-7.438,9.5a3.027,3.027,0,0,0,.529,4.242,3,3,0,0,0,4.2-.5l13.647-17.441c-.651,7.355.519,9.321,2.1,10.56s3.216-.84,3.353-2.5l1.021-13.6" transform="translate(-165.972 -333.931)" fill="none" stroke="#022741" stroke-linecap="round" stroke-linejoin="round" stroke-width="1.5"/>
        <path id="Shape_183" data-name="Shape 183" d="M180.09,351.951v-4.02" transform="translate(-166.019 -319.788)" fill="none" stroke="#022741" stroke-linecap="round" stroke-linejoin="round" stroke-width="1.5"/>
        <path id="Shape_184" data-name="Shape 184" d="M187.641,347.931H177.59" transform="translate(-168.544 -319.788)" fill="none" stroke="#022741" stroke-linecap="round" stroke-linejoin="round" stroke-width="1.5"/>
      </g>
    </g>
  </g>
</svg>
